<?xml version="1.0" encoding="utf-8"?>
<!-- Generator: Adobe Illustrator 17.0.0, SVG Export Plug-In . SVG Version: 6.00 Build 0)  -->
<!DOCTYPE svg PUBLIC "-//W3C//DTD SVG 1.1//EN" "http://www.w3.org/Graphics/SVG/1.1/DTD/svg11.dtd">
<svg version="1.1" id="Capa_1" xmlns="http://www.w3.org/2000/svg" xmlns:xlink="http://www.w3.org/1999/xlink" x="0px" y="0px"
	 width="512px" height="512px" viewBox="0 0 512 512" enable-background="new 0 0 512 512" xml:space="preserve">
<path fill="#FFFFFF" d="M256.081,0c70.637,0,134.58,28.723,180.832,74.963c46.438,46.438,74.963,110.393,74.963,181.03
	c0,70.649-28.537,134.592-74.976,181.03c-46.24,46.24-110.183,74.963-180.82,74.963s-134.58-28.723-181.018-74.963
	c-46.24-46.438-74.963-110.393-74.963-181.03c0-70.637,28.723-134.592,74.963-181.03C121.489,28.723,185.444,0,256.081,0L256.081,0z
	 M242.122,242.023V89.331c0-7.674,6.298-13.773,13.971-13.773c7.674,0,13.773,6.099,13.773,13.773v166.663l0,0v0.397l0,0v0.397l0,0
	v0.198l0,0v0.347l0,0v0.397l0,0v0.397l0,0l-0.198,0.198v0.198v0.198l0,0v0.397l0,0l-0.198,0.397l0,0v0.198l0,0l-0.198,0.397l0,0
	v0.397l0,0l-0.198,0.198l0,0l-0.198,0.397l0,0v0.198l0,0l-0.198,0.397l0,0l-0.198,0.397l0,0v0.198l0,0l-0.198,0.397l0,0
	l-0.198,0.198c-2.355,4.128-6.88,7.079-12,7.079h-0.397H125.617c-7.674,0-13.773-6.298-13.773-13.971
	c0-7.674,6.099-13.971,13.773-13.971H242.122z M94.736,94.65c-41.331,41.319-66.905,98.381-66.905,161.344
	c0,62.976,25.587,120.038,66.905,161.357s98.381,66.707,161.344,66.707s120.026-25.389,161.344-66.707
	c41.133-41.331,66.707-98.393,66.707-161.357S458.545,135.968,417.425,94.65c-41.319-41.331-98.381-66.707-161.344-66.707
	S136.055,53.331,94.736,94.65L94.736,94.65z"/>
</svg>
