<?xml version="1.0" encoding="utf-8"?>
<!-- Generator: Adobe Illustrator 17.0.0, SVG Export Plug-In . SVG Version: 6.00 Build 0)  -->
<!DOCTYPE svg PUBLIC "-//W3C//DTD SVG 1.1//EN" "http://www.w3.org/Graphics/SVG/1.1/DTD/svg11.dtd">
<svg version="1.1" id="Layer_1" xmlns="http://www.w3.org/2000/svg" xmlns:xlink="http://www.w3.org/1999/xlink" x="0px" y="0px"
	 width="512px" height="512px" viewBox="0 0 512 512" enable-background="new 0 0 512 512" xml:space="preserve">
<g>
	<g>
		<path fill="#FFFFFF" d="M483.324,72.622H371.573V14.65c0-8.09-5.503-14.65-12.289-14.65H152.716c-6.787,0-12.29,6.56-12.29,14.65
			v57.975H28.676C12.865,72.624,0,87.96,0,106.807c0,16.3,0,354.741,0,371.01C0,496.665,12.865,512,28.676,512h454.649
			C499.135,512,512,496.665,512,477.817c0-16.257,0-354.696,0-371.01C512,87.958,499.135,72.622,483.324,72.622z M165.006,29.3
			h181.987v43.323H165.006V29.3z M487.421,477.817c0,2.694-1.837,4.883-4.096,4.883H28.676c-2.258,0-4.097-2.189-4.097-4.883
			V306.962h167.924v28.421c0,8.092,5.503,14.65,12.29,14.65h102.413c6.788,0,12.29-6.558,12.29-14.65v-28.421h167.926V477.817z
			 M217.082,320.733v-28.421v-28.421h77.834v28.421v28.421H217.082z M487.421,277.662H319.495v-28.421
			c0-8.092-5.501-14.65-12.29-14.65H204.793c-6.787,0-12.29,6.558-12.29,14.65v28.421H24.579V106.805
			c0-2.694,1.838-4.883,4.097-4.883h454.649c2.26,0,4.096,2.189,4.096,4.883V277.662z"/>
	</g>
</g>
</svg>
